<svg height="230px" width="130px" xmlns="http://www.w3.org/2000/svg" viewBox="0 0 512.00 512.00" data-guides="{&quot;vertical&quot;:[],&quot;horizontal&quot;:[]}"><path fill="rgb(0, 0, 0)" stroke="none" fill-opacity="1" stroke-width="1" stroke-opacity="1" class="st0" id="tSvg96affe8060" title="Path 1" d="M446.07 381.528C445.016 379.66 420.883 336.766 391.575 285.968C376.603 259.999 360.267 231.961 344.969 206.279C331.221 183.208 318.326 162.052 307.941 145.925C309.832 144.096 311.599 142.143 313.195 140.066C316.14 136.246 318.527 132.022 320.232 127.465C323.224 119.499 324.533 112.145 324.526 105.387C324.526 101.311 324.061 97.467 323.255 93.879C322.031 88.485 320.07 83.665 317.877 79.31C315.676 74.962 313.258 71.064 311.034 67.476C307.958 62.532 305.19 58.014 303.246 53.326C302.27 50.985 301.494 48.599 300.944 46.041C300.393 43.483 300.084 40.764 300.084 37.725C300.084 33.014 300.843 27.527 302.78 20.886C304.8207 13.924 306.8613 6.962 308.902 0C301.656 0.3873 294.41 0.7747 287.164 1.162C286.505 1.201 281.05 1.518 272.618 3.014C264.186 4.502 252.779 7.16 240.241 11.896C237.513 12.926 234.847 14.018 232.228 15.166C226.385 13.887 220.371 12.818 214.482 11.95C203.764 10.362 193.542 9.378 185.971 8.789C178.399 8.199 173.487 7.998 173.409 7.998C173.321 7.9957 173.233 7.9933 173.145 7.991C173.057 7.9933 172.969 7.9957 172.881 7.998C172.795 7.998 162.528 8.347 149.585 9.51C143.107 10.099 135.961 10.889 129.065 11.951C125.609 12.494 122.199 13.09 118.96 13.787C117.185 14.167 115.457 14.57 113.783 15.011C111.28 13.919 108.738 12.881 106.142 11.897C93.603 7.161 82.195 4.503 73.764 3.015C65.332 1.519 59.877 1.202 59.218 1.163C51.9723 0.7753 44.7267 0.3877 37.481 0C39.5217 6.962 41.5623 13.924 43.603 20.886C45.54 27.527 46.3 33.014 46.3 37.725C46.3 40.764 45.982 43.483 45.432 46.041C44.627 49.869 43.278 53.341 41.526 56.821C39.79 60.293 37.652 63.773 35.35 67.477C32.39 72.266 29.05 77.59 26.407 83.821C25.082 86.936 23.942 90.285 23.129 93.88C22.323 97.468 21.851 101.312 21.851 105.388C21.843 112.146 23.152 119.5 26.151 127.466C27.918 132.201 30.429 136.572 33.521 140.509C38.171 146.422 44.137 151.351 51.012 155.179C55.46 157.667 60.304 159.682 65.441 161.232C63.179 167.176 61.349 173.639 59.985 180.544C57.955 190.75 56.901 201.902 56.901 213.689C56.901 236.635 60.893 261.984 69.703 287.232C76.306 306.165 85.636 325.035 98.066 342.704C116.712 369.207 142.363 393.014 176.074 410.11C209.785 427.222 251.462 437.598 301.974 437.59C302.563 437.59 303.152 437.575 303.74 437.575C305.3287 442.3833 313.6663 464.1917 323.255 490C373.803 471.3417 421.452 447.6583 472 429C457.3067 404.1677 460.7633 406.3603 446.07 381.528ZM138.667 25.14C147.377 24.055 156.095 23.358 162.605 22.939C165.859 22.73 168.564 22.59 170.447 22.497C171.393 22.45 172.121 22.427 172.625 22.404C172.833 22.396 172.981 22.388 173.097 22.38C174.632 22.45 182.753 22.838 193.525 23.892C199.043 24.427 205.274 25.14 211.644 26.078C206.359 29.418 201.384 33.06 196.734 36.974C187.59 44.654 179.685 53.427 173.191 63.137C166.697 53.427 158.793 44.654 149.648 36.974C144.828 32.921 139.667 29.178 134.196 25.737C135.683 25.527 137.171 25.326 138.667 25.14ZM312.839 423.065C311.2837 423.0937 309.7283 423.1223 308.173 423.151C306.097 423.182 304.035 423.205 301.974 423.205C258.808 423.197 222.959 415.355 193.387 402.39C171.207 392.656 152.547 380.032 136.97 365.556C113.612 343.841 97.184 317.919 86.598 291.362C76.013 264.812 71.285 237.626 71.285 213.688C71.285 202.761 72.27 192.516 74.091 183.341C75.912 174.173 78.577 166.082 81.856 159.471C83.2663 156.6297 84.6767 153.7883 86.087 150.947C82.9717 150.366 79.8563 149.785 76.741 149.204C67.403 147.46 59.274 144.004 52.95 139.377C49.78 137.06 47.06 134.456 44.828 131.62C42.596 128.776 40.852 125.707 39.62 122.421C39.62 122.4183 39.62 122.4157 39.62 122.413C37.156 115.85 36.241 110.3 36.241 105.387C36.241 102.419 36.582 99.668 37.171 97.041C38.054 93.096 39.527 89.415 41.348 85.797C43.169 82.177 45.355 78.652 47.571 75.063C50.64 70.111 53.879 64.935 56.421 58.859C57.685 55.821 58.761 52.559 59.506 49.048C60.265 45.53 60.684 41.763 60.684 37.726C60.684 31.457 59.661 24.567 57.406 16.849C57.2693 16.384 57.1327 15.919 56.996 15.454C57.4817 15.48 57.9673 15.506 58.453 15.532C58.623 15.539 63.529 15.81 71.263 17.182C78.997 18.546 89.56 21.01 101.06 25.357C116.172 31.069 129.362 38.71 140.397 47.986C151.417 57.263 160.298 68.166 166.839 80.496C168.957 84.5 171.075 88.504 173.193 92.508C175.3113 88.504 177.4297 84.5 179.548 80.496C186.088 68.166 194.97 57.263 205.99 47.986C217.025 38.71 230.207 31.069 245.327 25.357C256.827 21.01 267.382 18.545 275.116 17.182C282.85 15.81 287.763 15.539 287.934 15.532C288.4197 15.506 288.9053 15.48 289.391 15.454C289.2517 15.919 289.1123 16.384 288.973 16.849C286.718 24.567 285.703 31.457 285.703 37.726C285.703 41.764 286.121 45.53 286.881 49.048C287.997 54.325 289.857 59.006 291.98 63.261C294.119 67.515 296.506 71.351 298.807 75.063C301.775 79.837 304.659 84.525 306.735 89.439C307.773 91.904 308.626 94.415 309.215 97.042C309.803 99.669 310.145 102.42 310.145 105.388C310.145 110.301 309.23 115.85 306.766 122.414C305.58 125.584 303.914 128.544 301.798 131.296C299.682 134.046 297.11 136.581 294.134 138.852C292.354 140.2053 290.574 141.5587 288.794 142.912C290.0183 144.78 291.2427 146.648 292.467 148.516C303.154 164.821 317.359 188.054 332.602 213.643C355.479 252.035 380.727 295.804 400.248 329.956C410.005 347.036 418.343 361.714 424.233 372.114C427.178 377.322 429.503 381.453 431.107 384.289C431.905 385.707 432.525 386.8 432.936 387.536C433.346 388.272 433.564 388.652 433.564 388.652C433.577 388.6753 433.59 388.6987 433.603 388.722C433.616 388.7453 433.629 388.7687 433.642 388.792C445.4213 408.6953 441.7207 403.3017 452.5 423.205C411.4893 438.345 373.6127 458.86 332.602 474C316.5657 432.381 323.8753 446.684 312.839 423.065Z"/><path fill="rgb(0, 0, 0)" stroke="none" fill-opacity="1" stroke-width="1" stroke-opacity="1" class="st0" id="tSvg4a9ce0391f" title="Path 4" d="M202.919 286.208C195.983 270.384 192.489 254.218 192.489 238.695C192.489 230.279 193.52 222.049 195.573 214.137C191.4607 213.0703 187.3483 212.0037 183.236 210.937C180.895 219.926 179.748 229.241 179.748 238.695C179.748 256.132 183.67 274.018 191.256 291.33C214.032 343.252 269.906 389.983 354.005 404.312C354.718 400.1243 355.431 395.9367 356.144 391.749C302.471 382.589 261.522 359.837 234.011 331.62C220.255 317.509 209.862 302.033 202.919 286.208Z" display=""/><path fill="rgb(0, 0, 0)" stroke="none" fill-opacity="1" stroke-width="1" stroke-opacity="1" class="st0" id="tSvg9f00ced620" title="Path 5" d="M173.642 112.9004C172.8217 113.5721 151.3362 130.3571 144.6872 138.7586C136.0265 152.9184 212.3028 154.6815 202.3383 137.382C193.2094 128.0868 183.4257 120.1532 173.642 112.9004Z" display="" style=""/><path fill="rgb(0, 0, 0)" stroke="none" fill-opacity="1" stroke-width="1" stroke-opacity="1" display="" id="tSvg416213cfcb" title="Path 7" d="M94.1141 69.9293C97.7721 67.4573 102.2201 66.0003 106.9471 66.0003C110.0931 66.0003 113.1311 66.6433 115.8901 67.8053C120.0121 69.5573 123.5001 72.4553 125.9801 76.1133C128.4441 79.7703 129.9011 84.2263 129.9011 88.9533C129.9011 92.0993 129.2581 95.1373 128.0871 97.8893C126.3521 102.0113 123.4461 105.5073 119.7871 107.9793C116.1371 110.4513 111.6731 111.9003 106.9461 111.9003C103.8001 111.9003 100.7621 111.2573 98.0191 110.0953C93.8811 108.3513 90.3931 105.4453 87.9291 101.7873C85.4491 98.1373 83.9921 93.6733 84.0001 88.9533C83.9921 85.8073 84.6431 82.7623 85.8061 80.0183C87.5581 75.8883 90.4561 72.4013 94.1141 69.9293ZM104.5 73.5C91.9725 76.1205 88.2378 87.2378 94.1141 97.8893C96.9223 102.9795 126.7743 112.9791 121.7909 83.7293"/><path fill="rgb(0, 0, 0)" stroke="none" fill-opacity="1" stroke-width="1" stroke-opacity="1" display="" id="tSvg2f7aa09bbd" title="Path 9" d="M252.7621 69.9293C249.1041 67.4573 244.6561 66.0003 239.9291 66.0003C236.7831 66.0003 233.7451 66.6433 230.9861 67.8053C226.8641 69.5573 223.3761 72.4553 220.8961 76.1133C218.4321 79.7703 216.9751 84.2263 216.9751 88.9533C216.9751 92.0993 217.6181 95.1373 218.7891 97.8893C220.5241 102.0113 223.4301 105.5073 227.0891 107.9793C230.7391 110.4513 235.2031 111.9003 239.9301 111.9003C243.0761 111.9003 246.1141 111.2573 248.8571 110.0953C252.9951 108.3513 256.4831 105.4453 258.9471 101.7873C261.4271 98.1373 262.8841 93.6733 262.8761 88.9533C262.8841 85.8073 262.2331 82.7623 261.0701 80.0183C259.3181 75.8883 256.4201 72.4013 252.7621 69.9293ZM242.3762 73.5C254.9037 76.1205 258.6384 87.2378 252.7621 97.8893C249.9539 102.9795 220.1019 112.9791 225.0853 83.7293"/><defs/></svg>